<svg width="16" height="16" viewBox="0 0 16 16" fill="#000" xmlns="http://www.w3.org/2000/svg">
<path fill-rule="evenodd" clip-rule="evenodd" d="M5.43025 2.18047C5.22718 2.16662 4.97982 2.16662 4.68352 2.16663H4.64984C4.35353 2.16662 4.10617 2.16662 3.9031 2.18047C3.6917 2.1949 3.49201 2.22599 3.29842 2.30618C2.8492 2.49225 2.4923 2.84916 2.30623 3.29837C2.22604 3.49197 2.19494 3.69165 2.18052 3.90305C2.16666 4.10612 2.16667 4.35348 2.16667 4.64978V4.68346C2.16667 4.97976 2.16666 5.22713 2.18052 5.4302C2.19494 5.6416 2.22604 5.84129 2.30623 6.03488C2.4923 6.4841 2.8492 6.841 3.29842 7.02707C3.49201 7.10726 3.6917 7.13836 3.9031 7.15278C4.10617 7.16664 4.35353 7.16663 4.64983 7.16663H4.68351C4.97982 7.16663 5.22717 7.16664 5.43025 7.15278C5.64165 7.13836 5.84133 7.10726 6.03493 7.02707C6.48414 6.841 6.84105 6.4841 7.02712 6.03488C7.10731 5.84129 7.1384 5.6416 7.15283 5.4302C7.16668 5.22713 7.16668 4.97977 7.16667 4.68346V4.64979C7.16668 4.35348 7.16668 4.10612 7.15283 3.90305C7.1384 3.69165 7.10731 3.49197 7.02712 3.29837C6.84105 2.84916 6.48414 2.49225 6.03493 2.30618C5.84133 2.22599 5.64165 2.1949 5.43025 2.18047ZM3.6811 3.23006C3.73254 3.20875 3.81068 3.1891 3.97117 3.17815C4.13614 3.1669 4.3492 3.16663 4.66667 3.16663C4.98414 3.16663 5.1972 3.1669 5.36218 3.17815C5.52266 3.1891 5.60081 3.20875 5.65224 3.23006C5.85643 3.31464 6.01866 3.47687 6.10324 3.68106C6.12454 3.73249 6.1442 3.81064 6.15515 3.97112C6.1664 4.1361 6.16667 4.34916 6.16667 4.66663C6.16667 4.9841 6.1664 5.19716 6.15515 5.36213C6.1442 5.52262 6.12454 5.60076 6.10324 5.6522C6.01866 5.85639 5.85643 6.01861 5.65224 6.10319C5.60081 6.1245 5.52266 6.14415 5.36218 6.1551C5.1972 6.16636 4.98414 6.16663 4.66667 6.16663C4.3492 6.16663 4.13614 6.16636 3.97117 6.1551C3.81068 6.14415 3.73254 6.1245 3.6811 6.10319C3.47691 6.01861 3.31468 5.85639 3.23011 5.6522C3.2088 5.60076 3.18915 5.52262 3.1782 5.36213C3.16694 5.19716 3.16667 4.9841 3.16667 4.66663C3.16667 4.34916 3.16694 4.1361 3.1782 3.97112C3.18915 3.81064 3.2088 3.73249 3.23011 3.68106C3.31468 3.47687 3.47691 3.31464 3.6811 3.23006Z" fill="#1E1E1E"/>
<path d="M11.8333 2.66663C11.8333 2.39048 11.6095 2.16663 11.3333 2.16663C11.0572 2.16663 10.8333 2.39048 10.8333 2.66663V4.16663H9.33334C9.0572 4.16663 8.83334 4.39048 8.83334 4.66663C8.83334 4.94277 9.0572 5.16663 9.33334 5.16663H10.8333V6.66663C10.8333 6.94277 11.0572 7.16663 11.3333 7.16663C11.6095 7.16663 11.8333 6.94277 11.8333 6.66663V5.16663H13.3333C13.6095 5.16663 13.8333 4.94277 13.8333 4.66663C13.8333 4.39048 13.6095 4.16663 13.3333 4.16663H11.8333V2.66663Z" fill="#1E1E1E"/>
<path fill-rule="evenodd" clip-rule="evenodd" d="M5.43025 8.84714C5.22717 8.83328 4.97982 8.83329 4.68351 8.83329H4.64983C4.35353 8.83329 4.10617 8.83328 3.9031 8.84714C3.6917 8.86156 3.49201 8.89266 3.29842 8.97285C2.8492 9.15892 2.4923 9.51582 2.30623 9.96504C2.22604 10.1586 2.19494 10.3583 2.18052 10.5697C2.16666 10.7728 2.16667 11.0201 2.16667 11.3164V11.3501C2.16667 11.6464 2.16666 11.8938 2.18052 12.0969C2.19494 12.3083 2.22604 12.508 2.30623 12.7015C2.4923 13.1508 2.8492 13.5077 3.29842 13.6937C3.49201 13.7739 3.6917 13.805 3.9031 13.8194C4.10617 13.8333 4.35353 13.8333 4.64983 13.8333H4.68351C4.97982 13.8333 5.22717 13.8333 5.43025 13.8194C5.64165 13.805 5.84133 13.7739 6.03493 13.6937C6.48414 13.5077 6.84105 13.1508 7.02712 12.7015C7.10731 12.508 7.1384 12.3083 7.15283 12.0969C7.16668 11.8938 7.16668 11.6464 7.16667 11.3501V11.3165C7.16668 11.0201 7.16668 10.7728 7.15283 10.5697C7.1384 10.3583 7.10731 10.1586 7.02712 9.96504C6.84105 9.51582 6.48414 9.15892 6.03493 8.97285C5.84133 8.89266 5.64165 8.86156 5.43025 8.84714ZM3.6811 9.89673C3.73254 9.87542 3.81068 9.85577 3.97117 9.84482C4.13614 9.83356 4.3492 9.83329 4.66667 9.83329C4.98414 9.83329 5.1972 9.83356 5.36218 9.84482C5.52266 9.85577 5.60081 9.87542 5.65224 9.89673C5.85643 9.9813 6.01866 10.1435 6.10324 10.3477C6.12454 10.3992 6.1442 10.4773 6.15515 10.6378C6.1664 10.8028 6.16667 11.0158 6.16667 11.3333C6.16667 11.6508 6.1664 11.8638 6.15515 12.0288C6.1442 12.1893 6.12454 12.2674 6.10324 12.3189C6.01866 12.5231 5.85643 12.6853 5.65224 12.7699C5.60081 12.7912 5.52266 12.8108 5.36218 12.8218C5.1972 12.833 4.98414 12.8333 4.66667 12.8333C4.3492 12.8333 4.13614 12.833 3.97117 12.8218C3.81068 12.8108 3.73254 12.7912 3.6811 12.7699C3.47691 12.6853 3.31468 12.5231 3.23011 12.3189C3.2088 12.2674 3.18915 12.1893 3.1782 12.0288C3.16694 11.8638 3.16667 11.6508 3.16667 11.3333C3.16667 11.0158 3.16694 10.8028 3.1782 10.6378C3.18915 10.4773 3.2088 10.3992 3.23011 10.3477C3.31468 10.1435 3.47691 9.9813 3.6811 9.89673Z" fill="#1E1E1E"/>
<path fill-rule="evenodd" clip-rule="evenodd" d="M12.0969 8.84714C11.8938 8.83328 11.6465 8.83329 11.3502 8.83329H11.3165C11.0202 8.83329 10.7728 8.83328 10.5698 8.84714C10.3584 8.86156 10.1587 8.89266 9.96509 8.97285C9.51587 9.15892 9.15897 9.51582 8.97289 9.96504C8.8927 10.1586 8.86161 10.3583 8.84719 10.5697C8.83333 10.7728 8.83333 11.0201 8.83334 11.3165V11.3501C8.83333 11.6464 8.83333 11.8938 8.84719 12.0969C8.86161 12.3083 8.8927 12.508 8.97289 12.7015C9.15897 13.1508 9.51587 13.5077 9.96509 13.6937C10.1587 13.7739 10.3584 13.805 10.5698 13.8194C10.7728 13.8333 11.0202 13.8333 11.3165 13.8333H11.3502C11.6465 13.8333 11.8938 13.8333 12.0969 13.8194C12.3083 13.805 12.508 13.7739 12.7016 13.6937C13.1508 13.5077 13.5077 13.1508 13.6938 12.7015C13.774 12.508 13.8051 12.3083 13.8195 12.0969C13.8333 11.8938 13.8333 11.6464 13.8333 11.3501V11.3165C13.8333 11.0201 13.8333 10.7728 13.8195 10.5697C13.8051 10.3583 13.774 10.1586 13.6938 9.96504C13.5077 9.51582 13.1508 9.15892 12.7016 8.97285C12.508 8.89266 12.3083 8.86156 12.0969 8.84714ZM10.3478 9.89673C10.3992 9.87542 10.4773 9.85577 10.6378 9.84482C10.8028 9.83356 11.0159 9.83329 11.3333 9.83329C11.6508 9.83329 11.8639 9.83356 12.0288 9.84482C12.1893 9.85577 12.2675 9.87542 12.3189 9.89673C12.5231 9.98131 12.6853 10.1435 12.7699 10.3477C12.7912 10.3992 12.8109 10.4773 12.8218 10.6378C12.8331 10.8028 12.8333 11.0158 12.8333 11.3333C12.8333 11.6508 12.8331 11.8638 12.8218 12.0288C12.8109 12.1893 12.7912 12.2674 12.7699 12.3189C12.6853 12.5231 12.5231 12.6853 12.3189 12.7699C12.2675 12.7912 12.1893 12.8108 12.0288 12.8218C11.8639 12.833 11.6508 12.8333 11.3333 12.8333C11.0159 12.8333 10.8028 12.833 10.6378 12.8218C10.4773 12.8108 10.3992 12.7912 10.3478 12.7699C10.1436 12.6853 9.98135 12.5231 9.89677 12.3189C9.87547 12.2674 9.85582 12.1893 9.84487 12.0288C9.83361 11.8638 9.83334 11.6508 9.83334 11.3333C9.83334 11.0158 9.83361 10.8028 9.84487 10.6378C9.85582 10.4773 9.87547 10.3992 9.89677 10.3477C9.98135 10.1435 10.1436 9.98131 10.3478 9.89673Z" fill="#1E1E1E"/>
</svg>
