<svg width="16" height="4" viewBox="0 0 16 4" fill="#000" xmlns="http://www.w3.org/2000/svg">
<path fill-rule="evenodd" clip-rule="evenodd" d="M15.1667 1.99996C15.1667 0.987438 14.3458 0.166626 13.3333 0.166626C12.3208 0.166626 11.5 0.987438 11.5 1.99996C11.5 3.01248 12.3208 3.83329 13.3333 3.83329C14.3458 3.83329 15.1667 3.01248 15.1667 1.99996ZM13.3333 1.16663C13.7936 1.16663 14.1667 1.53972 14.1667 1.99996C14.1667 2.4602 13.7936 2.83329 13.3333 2.83329C12.8731 2.83329 12.5 2.4602 12.5 1.99996C12.5 1.53972 12.8731 1.16663 13.3333 1.16663Z" fill="#1E1E1E"/>
<path fill-rule="evenodd" clip-rule="evenodd" d="M9.83332 1.99996C9.83332 0.987437 9.01251 0.166626 7.99999 0.166626C6.98747 0.166626 6.16666 0.987437 6.16666 1.99996C6.16666 3.01248 6.98747 3.83329 7.99999 3.83329C9.01251 3.83329 9.83332 3.01248 9.83332 1.99996ZM7.99999 1.16663C8.46023 1.16663 8.83332 1.53972 8.83332 1.99996C8.83332 2.4602 8.46023 2.83329 7.99999 2.83329C7.53975 2.83329 7.16666 2.4602 7.16666 1.99996C7.16666 1.53972 7.53975 1.16663 7.99999 1.16663Z" fill="#1E1E1E"/>
<path fill-rule="evenodd" clip-rule="evenodd" d="M4.49999 1.99996C4.49999 0.987437 3.67918 0.166625 2.66666 0.166625C1.65413 0.166625 0.833322 0.987437 0.833322 1.99996C0.833322 3.01248 1.65413 3.83329 2.66666 3.83329C3.67918 3.83329 4.49999 3.01248 4.49999 1.99996ZM2.66666 1.16663C3.12689 1.16663 3.49999 1.53972 3.49999 1.99996C3.49999 2.4602 3.12689 2.83329 2.66666 2.83329C2.20642 2.83329 1.83332 2.4602 1.83332 1.99996C1.83332 1.53972 2.20642 1.16663 2.66666 1.16663Z" fill="#1E1E1E"/>
</svg>
