<svg width="14" height="14" viewBox="0 0 14 14" fill="#000" xmlns="http://www.w3.org/2000/svg">
<path d="M9 1.5C9.27614 1.5 9.5 1.27614 9.5 1C9.5 0.723858 9.27614 0.5 9 0.5L6.96983 0.5C5.74548 0.499994 4.78574 0.49999 4.02432 0.582485C3.24729 0.666671 2.61771 0.841549 2.08016 1.2321C1.75473 1.46854 1.46854 1.75473 1.2321 2.08016C0.841549 2.61771 0.666671 3.24729 0.582485 4.02432C0.49999 4.78574 0.499995 5.74548 0.5 6.96983V7.03017C0.499995 8.25452 0.49999 9.21426 0.582485 9.97568C0.666671 10.7527 0.841549 11.3823 1.2321 11.9198C1.46854 12.2453 1.75473 12.5315 2.08016 12.7679C2.61771 13.1585 3.24729 13.3333 4.02432 13.4175C4.78573 13.5 5.74544 13.5 6.96977 13.5H7.03018C8.25451 13.5 9.21427 13.5 9.97568 13.4175C10.7527 13.3333 11.3823 13.1585 11.9198 12.7679C12.2453 12.5315 12.5315 12.2453 12.7679 11.9198C13.1585 11.3823 13.3333 10.7527 13.4175 9.97568C13.5 9.21427 13.5 8.25456 13.5 7.03023V5C13.5 4.72386 13.2761 4.5 13 4.5C12.7239 4.5 12.5 4.72386 12.5 5V7C12.5 8.26105 12.4993 9.16667 12.4233 9.86797C12.3484 10.5599 12.2049 10.9934 11.9589 11.3321C11.7841 11.5726 11.5726 11.7841 11.3321 11.9589C10.9934 12.2049 10.5599 12.3484 9.86797 12.4233C9.16667 12.4993 8.26105 12.5 7 12.5C5.73895 12.5 4.83333 12.4993 4.13203 12.4233C3.44009 12.3484 3.00661 12.2049 2.66794 11.9589C2.42741 11.7841 2.21588 11.5726 2.04112 11.3321C1.79506 10.9934 1.65163 10.5599 1.57667 9.86797C1.50069 9.16667 1.5 8.26105 1.5 7C1.5 5.73895 1.50069 4.83333 1.57667 4.13203C1.65163 3.44009 1.79506 3.00661 2.04112 2.66794C2.21588 2.42741 2.42741 2.21588 2.66794 2.04112C3.00661 1.79506 3.44009 1.65163 4.13203 1.57667C4.83333 1.50069 5.73895 1.5 7 1.5H9Z" fill="#1E1E1E"/>
<path d="M3.21777 8.68456C3.09615 8.93248 3.19855 9.23205 3.44647 9.35366C3.69439 9.47528 3.99396 9.37288 4.11557 9.12496L5.08912 7.14026C5.39088 6.52509 6.27779 6.55514 6.53723 7.18932C7.12333 8.62201 9.12696 8.68989 9.80868 7.30014L10.7822 5.31544C10.9038 5.06752 10.8015 4.76795 10.5535 4.64634C10.3056 4.52472 10.006 4.62712 9.88443 4.87504L8.91088 6.85974C8.60912 7.47491 7.72221 7.44487 7.46277 6.81068C6.87667 5.37799 4.87303 5.31011 4.19132 6.69986L3.21777 8.68456Z" fill="#1E1E1E"/>
<path fill-rule="evenodd" clip-rule="evenodd" d="M10.6667 1.66667C10.6667 2.58714 11.4129 3.33333 12.3333 3.33333C13.2538 3.33333 14 2.58714 14 1.66667C14 0.746192 13.2538 0 12.3333 0C11.4129 0 10.6667 0.746192 10.6667 1.66667ZM11.6667 1.66667C11.6667 2.03486 11.9651 2.33333 12.3333 2.33333C12.7015 2.33333 13 2.03486 13 1.66667C13 1.29848 12.7015 1 12.3333 1C11.9651 1 11.6667 1.29848 11.6667 1.66667Z" fill="#1E1E1E"/>
</svg>
