<svg width="14" height="14" viewBox="0 0 14 14" fill="#000" xmlns="http://www.w3.org/2000/svg">
<path d="M4.33333 3.83333C4.05719 3.83333 3.83333 4.05719 3.83333 4.33333C3.83333 4.60948 4.05719 4.83333 4.33333 4.83333H6.33333C6.60948 4.83333 6.83333 4.60948 6.83333 4.33333C6.83333 4.05719 6.60948 3.83333 6.33333 3.83333H4.33333Z" fill="#1E1E1E"/>
<path d="M4.33333 6.5C4.05719 6.5 3.83333 6.72386 3.83333 7C3.83333 7.27614 4.05719 7.5 4.33333 7.5H9.66667C9.94281 7.5 10.1667 7.27614 10.1667 7C10.1667 6.72386 9.94281 6.5 9.66667 6.5H4.33333Z" fill="#1E1E1E"/>
<path d="M4.33333 9.16667C4.05719 9.16667 3.83333 9.39052 3.83333 9.66667C3.83333 9.94281 4.05719 10.1667 4.33333 10.1667H6.33333C6.60948 10.1667 6.83333 9.94281 6.83333 9.66667C6.83333 9.39052 6.60948 9.16667 6.33333 9.16667H4.33333Z" fill="#1E1E1E"/>
<path fill-rule="evenodd" clip-rule="evenodd" d="M9.97568 0.582485C9.21426 0.49999 8.25452 0.499995 7.03017 0.5H6.96983C5.74548 0.499995 4.78574 0.49999 4.02432 0.582485C3.24729 0.666671 2.61771 0.841549 2.08016 1.2321C1.75473 1.46854 1.46854 1.75473 1.2321 2.08016C0.841549 2.61771 0.666671 3.24729 0.582485 4.02432C0.49999 4.78574 0.499995 5.74548 0.5 6.96983V7.03017C0.499995 8.25452 0.49999 9.21426 0.582485 9.97568C0.666671 10.7527 0.841549 11.3823 1.2321 11.9198C1.46854 12.2453 1.75473 12.5315 2.08016 12.7679C2.61771 13.1585 3.24729 13.3333 4.02432 13.4175C4.78573 13.5 5.74544 13.5 6.96977 13.5H7.00734C7.78073 13.5 8.44565 13.5 9.01712 13.4804C10.2661 13.4376 11.1841 13.3025 11.9198 12.7679C12.2453 12.5315 12.5315 12.2453 12.7679 11.9198C13.3025 11.1841 13.4376 10.2661 13.4804 9.01712C13.5 8.44565 13.5 7.78073 13.5 7.00734V6.96982C13.5 5.74549 13.5 4.78573 13.4175 4.02432C13.3333 3.24729 13.1585 2.61771 12.7679 2.08016C12.5315 1.75473 12.2453 1.46854 11.9198 1.2321C11.3823 0.841549 10.7527 0.666671 9.97568 0.582485ZM2.66794 2.04112C3.00661 1.79506 3.44009 1.65163 4.13203 1.57667C4.83333 1.50069 5.73895 1.5 7 1.5C8.26105 1.5 9.16667 1.50069 9.86797 1.57667C10.5599 1.65163 10.9934 1.79506 11.3321 2.04112C11.5726 2.21588 11.7841 2.42741 11.9589 2.66794C12.2049 3.00661 12.3484 3.44009 12.4233 4.13203C12.4993 4.83333 12.5 5.73895 12.5 7C12.5 7.56557 12.5 8.06119 12.4928 8.50122C12.1764 8.50413 11.9434 8.51398 11.7337 8.5472C10.0934 8.80699 8.80699 10.0934 8.5472 11.7337C8.51398 11.9434 8.50413 12.1764 8.50122 12.4928C8.06119 12.5 7.56557 12.5 7 12.5C5.73895 12.5 4.83333 12.4993 4.13203 12.4233C3.44009 12.3484 3.00661 12.2049 2.66794 11.9589C2.42741 11.7841 2.21588 11.5726 2.04112 11.3321C1.79506 10.9934 1.65163 10.5599 1.57667 9.86797C1.50069 9.16667 1.5 8.26105 1.5 7C1.5 5.73895 1.50069 4.83333 1.57667 4.13203C1.65163 3.44009 1.79506 3.00661 2.04112 2.66794C2.21588 2.42741 2.42741 2.21588 2.66794 2.04112ZM11.8901 9.53488C12.0268 9.51323 12.1851 9.50498 12.455 9.50186C12.3925 10.4088 12.2492 10.9324 11.9589 11.3321C11.7841 11.5726 11.5726 11.7841 11.3321 11.9589C10.9324 12.2492 10.4088 12.3925 9.50186 12.455C9.50498 12.1851 9.51323 12.0268 9.53488 11.8901C9.7269 10.6777 10.6777 9.7269 11.8901 9.53488Z" fill="#1E1E1E"/>
</svg>
