<svg width="12" height="12" viewBox="0 0 12 12" fill="#000" xmlns="http://www.w3.org/2000/svg">
<path d="M0.666626 2.66663C0.666626 2.04537 0.666626 1.73474 0.76812 1.48971C0.903445 1.16301 1.16301 0.903445 1.48971 0.76812C1.73474 0.666626 2.04537 0.666626 2.66663 0.666626C3.28788 0.666626 3.59851 0.666626 3.84354 0.76812C4.17024 0.903445 4.42981 1.16301 4.56513 1.48971C4.66663 1.73474 4.66663 2.04537 4.66663 2.66663C4.66663 3.28788 4.66663 3.59851 4.56513 3.84354C4.42981 4.17024 4.17024 4.42981 3.84354 4.56513C3.59851 4.66663 3.28788 4.66663 2.66663 4.66663C2.04537 4.66663 1.73474 4.66663 1.48971 4.56513C1.16301 4.42981 0.903445 4.17024 0.76812 3.84354C0.666626 3.59851 0.666626 3.28788 0.666626 2.66663Z" fill="#000"/>
<path d="M0.666626 9.33329C0.666626 8.71204 0.666626 8.40141 0.76812 8.15638C0.903445 7.82968 1.16301 7.57011 1.48971 7.43479C1.73474 7.33329 2.04537 7.33329 2.66663 7.33329C3.28788 7.33329 3.59851 7.33329 3.84354 7.43479C4.17024 7.57011 4.42981 7.82968 4.56513 8.15638C4.66663 8.40141 4.66663 8.71204 4.66663 9.33329C4.66663 9.95455 4.66663 10.2652 4.56513 10.5102C4.42981 10.8369 4.17024 11.0965 3.84354 11.2318C3.59851 11.3333 3.28788 11.3333 2.66663 11.3333C2.04537 11.3333 1.73474 11.3333 1.48971 11.2318C1.16301 11.0965 0.903445 10.8369 0.76812 10.5102C0.666626 10.2652 0.666626 9.95455 0.666626 9.33329Z" fill="#000"/>
<path d="M7.33329 9.33329C7.33329 8.71204 7.33329 8.40141 7.43479 8.15638C7.57011 7.82968 7.82968 7.57011 8.15638 7.43479C8.40141 7.33329 8.71204 7.33329 9.33329 7.33329C9.95455 7.33329 10.2652 7.33329 10.5102 7.43479C10.8369 7.57011 11.0965 7.82968 11.2318 8.15638C11.3333 8.40141 11.3333 8.71204 11.3333 9.33329C11.3333 9.95455 11.3333 10.2652 11.2318 10.5102C11.0965 10.8369 10.8369 11.0965 10.5102 11.2318C10.2652 11.3333 9.95455 11.3333 9.33329 11.3333C8.71204 11.3333 8.40141 11.3333 8.15638 11.2318C7.82968 11.0965 7.57011 10.8369 7.43479 10.5102C7.33329 10.2652 7.33329 9.95455 7.33329 9.33329Z" fill="#000"/>
<path d="M9.83329 0.666626C9.83329 0.390484 9.60943 0.166626 9.33329 0.166626C9.05715 0.166626 8.83329 0.390484 8.83329 0.666626V2.16663H7.33329C7.05715 2.16663 6.83329 2.39048 6.83329 2.66663C6.83329 2.94277 7.05715 3.16663 7.33329 3.16663H8.83329V4.66663C8.83329 4.94277 9.05715 5.16663 9.33329 5.16663C9.60943 5.16663 9.83329 4.94277 9.83329 4.66663V3.16663H11.3333C11.6094 3.16663 11.8333 2.94277 11.8333 2.66663C11.8333 2.39048 11.6094 2.16663 11.3333 2.16663H9.83329V0.666626Z" fill="#000"/>
</svg>
