<svg width="23" height="31" viewBox="0 0 23 31" fill="#000" xmlns="http://www.w3.org/2000/svg">
<path fill-rule="evenodd" clip-rule="evenodd" d="M2.5145 6.51132C3.52152 3.04234 6.58929 0.475408 10.2334 0.0526148C11.4536 -0.0889626 12.8716 0.0588545 14.0622 0.451721C16.8559 1.37358 19.121 3.71121 19.9338 6.51132C20.2629 7.64515 20.2803 7.85821 20.3201 11.2249L20.3529 13.9973C20.3555 14.2241 20.4974 14.4259 20.7099 14.5051L20.7821 14.532C21.0157 14.6192 21.3395 14.7391 21.5015 14.7985C21.8744 14.9351 22.1958 15.2151 22.3378 15.5271C22.4423 15.7569 22.4483 16.1016 22.4483 21.9492C22.4483 27.8148 22.4426 28.1408 22.3369 28.3732C22.2101 28.6518 21.9315 28.9081 21.6092 29.0427C21.1197 29.2472 19.4255 29.8048 18.6877 30.0044C13.7797 31.3319 8.66861 31.3319 3.76062 30.0044C3.0228 29.8048 1.32859 29.2472 0.839098 29.0427C0.516798 28.9081 0.23813 28.6518 0.111418 28.3732C0.00564365 28.1408 0 27.8148 0 21.9492C0 16.1016 0.00594711 15.7569 0.110508 15.5271C0.252451 15.2151 0.573902 14.9351 0.946754 14.7985C1.10878 14.7391 1.43254 14.6192 1.66618 14.532L2.07344 14.3802C2.08401 14.3762 2.09107 14.3662 2.0912 14.3549C2.09135 14.3423 2.10015 14.3314 2.11248 14.3286L7.05119 13.2123C8.83539 12.9533 10.8867 12.8496 12.5812 12.9428C13.9302 13.0169 15.2731 13.1709 16.3824 13.3786C16.7329 13.4442 17.0538 13.498 17.0955 13.498C17.1549 13.4982 17.1711 12.9524 17.1705 10.9689C17.1698 8.73663 17.1564 8.37563 17.0564 7.89444C16.814 6.72819 16.2456 5.67954 15.4021 4.8425C14.4345 3.88223 13.1403 3.26328 11.8997 3.16738C11.6449 3.14769 11.3819 3.12394 11.3152 3.11461C11.2484 3.10534 10.9493 3.12049 10.6504 3.14829C8.85759 3.31513 7.25956 4.28624 6.24302 5.82663C5.82726 6.45661 5.55144 7.1267 5.3919 7.89444C5.31659 8.2568 5.29039 8.55101 5.28173 9.62752C5.27967 9.88327 5.10247 10.1052 4.853 10.1616L2.81214 10.6229C2.46608 10.7011 2.1377 10.434 2.14303 10.0793C2.17748 7.78864 2.22744 7.50012 2.5145 6.51132Z" fill="#000"/>
<path fill-rule="evenodd" clip-rule="evenodd" d="M16.0075 23.1846C16.0075 22.8815 15.7617 22.6357 15.4586 22.6357H11.9751C11.6719 22.6357 11.4262 22.8815 11.4262 23.1846V23.6139C11.4262 23.9171 11.6719 24.1629 11.9751 24.1629H15.4586C15.7617 24.1629 16.0075 23.9171 16.0075 23.6139V23.1846ZM16.0075 25.3977C16.0075 25.0946 15.7617 24.8488 15.4586 24.8488H11.9751C11.6719 24.8488 11.4262 25.0946 11.4262 25.3977V25.827C11.4262 26.1301 11.6719 26.3759 11.9751 26.3759H15.4586C15.7617 26.3759 16.0075 26.1301 16.0075 25.827V25.3977Z" fill="#A93FEA"/>
<path fill-rule="evenodd" clip-rule="evenodd" d="M8.3563 17.5063C8.3563 17.2032 8.11055 16.9574 7.8074 16.9574H7.37811C7.07496 16.9574 6.82921 17.2032 6.82921 17.5063V17.9356C6.82921 18.2388 6.58346 18.4845 6.2803 18.4845L5.85101 18.4845C5.54786 18.4845 5.30211 18.7303 5.30211 19.0334V19.4627C5.30211 19.7658 5.54786 20.0116 5.85101 20.0116H6.2803C6.58346 20.0116 6.82921 20.2574 6.82921 20.5605V20.9898C6.82921 21.2929 7.07496 21.5387 7.37811 21.5387H7.8074C8.11055 21.5387 8.3563 21.2929 8.3563 20.9898V20.5605C8.3563 20.2574 8.60205 20.0116 8.90521 20.0116H9.33449C9.63764 20.0116 9.88339 19.7658 9.88339 19.4627V19.0334C9.88339 18.7303 9.63764 18.4845 9.33449 18.4845L8.90521 18.4845C8.60205 18.4845 8.3563 18.2388 8.3563 17.9356V17.5063Z" fill="#2DE31D"/>
<path fill-rule="evenodd" clip-rule="evenodd" d="M8.28442 26.3645C8.49878 26.5789 8.84633 26.5789 9.06069 26.3645L9.36424 26.061C9.5786 25.8466 9.5786 25.4991 9.36424 25.2847L9.06069 24.9812C8.84633 24.7668 8.84633 24.4193 9.06069 24.2049L9.36424 23.9014C9.5786 23.687 9.5786 23.3395 9.36424 23.1251L9.06069 22.8215C8.84633 22.6072 8.49878 22.6072 8.28442 22.8215L7.98087 23.1251C7.76651 23.3395 7.41896 23.3395 7.2046 23.1251L6.90105 22.8215C6.68669 22.6072 6.33914 22.6072 6.12478 22.8215L5.82123 23.1251C5.60687 23.3394 5.60687 23.687 5.82123 23.9014L6.12479 24.2049C6.33915 24.4193 6.33915 24.7668 6.12478 24.9812L5.82123 25.2847C5.60687 25.4991 5.60687 25.8466 5.82123 26.061L6.12478 26.3645C6.33914 26.5789 6.68669 26.5789 6.90105 26.3645L7.2046 26.061C7.41896 25.8466 7.76651 25.8466 7.98087 26.061L8.28442 26.3645Z" fill="#3378FE"/>
<path d="M15.4429 18.4846C15.746 18.4846 15.9918 18.7304 15.9918 19.0335L15.9918 19.4628C15.9918 19.766 15.746 20.0117 15.4429 20.0117L11.9594 20.0117C11.6562 20.0117 11.4105 19.766 11.4105 19.4628L11.4105 19.0335C11.4105 18.7304 11.6562 18.4846 11.9594 18.4846L15.4429 18.4846Z" fill="#FF9900"/>
</svg>
