<svg width="30" height="31" viewBox="0 0 30 31" fill="#000" xmlns="http://www.w3.org/2000/svg">
<path fill-rule="evenodd" clip-rule="evenodd" d="M21.8294 3.46716C20.4017 3.31248 18.6022 3.31249 16.3066 3.3125H13.6934C11.3978 3.31249 9.59827 3.31248 8.1706 3.46716C6.71367 3.62501 5.5332 3.95291 4.52529 4.68519C3.91511 5.12851 3.37851 5.66511 2.93519 6.27529C2.73309 6.55347 2.56001 6.84726 2.41234 7.15996C1.9601 8.11755 1.75839 9.22796 1.66008 10.5521C1.56249 11.8665 1.5625 13.4778 1.5625 15.4645V15.5566C1.56249 17.8522 1.56248 19.6517 1.71716 21.0794C1.87501 22.5363 2.20291 23.7168 2.93519 24.7247C3.37851 25.3349 3.91511 25.8715 4.52529 26.3148C5.5332 27.0471 6.71367 27.375 8.1706 27.5328C9.59824 27.6875 11.3977 27.6875 13.6933 27.6875H16.3066C18.6022 27.6875 20.4018 27.6875 21.8294 27.5328C23.2863 27.375 24.4668 27.0471 25.4747 26.3148C26.0849 25.8715 26.6215 25.3349 27.0648 24.7247C27.7971 23.7168 28.125 22.5363 28.2828 21.0794C28.4375 19.6518 28.4375 17.8523 28.4375 15.5567V15.4636C28.4375 13.4634 28.4375 11.8436 28.3378 10.5238C28.2373 9.19383 28.0311 8.07973 27.5683 7.11933C27.4249 6.82168 27.2581 6.5413 27.0648 6.27529C26.6215 5.66511 26.0849 5.12851 25.4747 4.68519C24.4668 3.95291 23.2863 3.62501 21.8294 3.46716ZM5.62739 6.2021C6.2624 5.74074 7.07517 5.47181 8.37256 5.33125C9.68749 5.18879 11.3855 5.1875 13.75 5.1875H16.25C18.6145 5.1875 20.3125 5.18879 21.6274 5.33125C22.9248 5.47181 23.7376 5.74074 24.3726 6.2021C24.8234 6.52961 25.2199 6.92601 25.5474 7.37674L23.1759 9.74826C21.0738 11.8503 19.5626 13.3588 18.2591 14.3533C16.9772 15.3314 16.007 15.7237 15 15.7237C13.993 15.7237 13.0228 15.3314 11.7409 14.3533C10.4374 13.3588 8.92615 11.8503 6.82408 9.74825L4.45257 7.37674C4.78015 6.92601 5.1766 6.52961 5.62739 6.2021ZM26.2966 9.27922C26.3721 9.67951 26.4282 10.1361 26.4681 10.6651C26.5619 11.9062 26.5625 13.456 26.5625 15.5C26.5625 17.8645 26.5612 19.5625 26.4188 20.8774C26.2782 22.1748 26.0093 22.9876 25.5479 23.6226C25.2202 24.0736 24.8236 24.4702 24.3726 24.7979C23.7376 25.2593 22.9248 25.5282 21.6274 25.6688C20.3125 25.8112 18.6145 25.8125 16.25 25.8125H13.75C11.3855 25.8125 9.68749 25.8112 8.37256 25.6688C7.07517 25.5282 6.2624 25.2593 5.62739 24.7979C5.17639 24.4702 4.77977 24.0736 4.4521 23.6226C3.99074 22.9876 3.72181 22.1748 3.58125 20.8774C3.43879 19.5625 3.4375 17.8645 3.4375 15.5C3.4375 13.4706 3.43809 11.928 3.52993 10.6909C3.57002 10.1511 3.62664 9.68607 3.70339 9.27922L5.54896 11.1248C7.5893 13.1652 9.18828 14.7641 10.6036 15.844C12.0523 16.9493 13.4182 17.5987 15 17.5987C16.5818 17.5987 17.9477 16.9493 19.3964 15.844C20.8117 14.7641 22.4107 13.1652 24.451 11.1248L26.2966 9.27922Z" fill="#A93FEA"/>
</svg>
