<svg width="14" height="4" viewBox="0 0 14 4" fill="#000" xmlns="http://www.w3.org/2000/svg">
<path d="M6.99996 3.33329C6.26358 3.33329 5.66663 2.73634 5.66663 1.99996C5.66663 1.26358 6.26358 0.666626 6.99996 0.666626C7.73634 0.666626 8.33329 1.26358 8.33329 1.99996C8.33329 2.73634 7.73634 3.33329 6.99996 3.33329Z" fill="#000"/>
<path d="M12.3333 3.33329C11.5969 3.33329 11 2.73634 11 1.99996C11 1.26358 11.5969 0.666626 12.3333 0.666626C13.0697 0.666626 13.6666 1.26358 13.6666 1.99996C13.6666 2.73634 13.0697 3.33329 12.3333 3.33329Z" fill="#000"/>
<path d="M1.66663 3.33329C0.930246 3.33329 0.333292 2.73634 0.333292 1.99996C0.333292 1.26358 0.930246 0.666625 1.66663 0.666625C2.40301 0.666625 2.99996 1.26358 2.99996 1.99996C2.99996 2.73634 2.40301 3.33329 1.66663 3.33329Z" fill="#000"/>
</svg>
