<svg width="30" height="31" viewBox="0 0 30 31" fill="none" xmlns="http://www.w3.org/2000/svg">
<path fill-rule="evenodd" clip-rule="evenodd" d="M11.25 12.0625C9.35152 12.0625 7.8125 13.6015 7.8125 15.5C7.8125 17.3985 9.35152 18.9375 11.25 18.9375C12.8235 18.9375 14.15 17.8803 14.5581 16.4375H16.8609C16.93 16.7763 16.8855 17.1326 16.7275 17.4488L16.6615 17.5807C16.4299 18.0438 16.6176 18.607 17.0807 18.8385C17.5438 19.0701 18.107 18.8824 18.3385 18.4193L18.4045 18.2873C18.6943 17.7076 18.8106 17.0665 18.7532 16.4375H20.6109C20.68 16.7763 20.6355 17.1326 20.4775 17.4488L20.4115 17.5807C20.1799 18.0438 20.3676 18.607 20.8307 18.8385C21.2938 19.0701 21.857 18.8824 22.0885 18.4193L22.1545 18.2873C22.6384 17.3195 22.6384 16.1805 22.1545 15.2127C21.9553 14.8142 21.548 14.5625 21.1025 14.5625H17.5189C17.5058 14.5622 17.4928 14.5622 17.4797 14.5625H14.5581C14.15 13.1197 12.8235 12.0625 11.25 12.0625ZM9.6875 15.5C9.6875 14.6371 10.3871 13.9375 11.25 13.9375C12.1129 13.9375 12.8125 14.6371 12.8125 15.5C12.8125 16.3629 12.1129 17.0625 11.25 17.0625C10.3871 17.0625 9.6875 16.3629 9.6875 15.5Z" fill="#A93FEA"/>
<path fill-rule="evenodd" clip-rule="evenodd" d="M20.5794 3.46716C19.1517 3.31248 17.3522 3.31249 15.0566 3.3125H14.9434C12.6478 3.31249 10.8483 3.31248 9.4206 3.46716C7.96367 3.62501 6.7832 3.95291 5.77529 4.68519C5.16511 5.12851 4.62851 5.66511 4.18519 6.27529C3.45291 7.2832 3.12501 8.46367 2.96716 9.9206C2.81248 11.3483 2.81249 13.1478 2.8125 15.4434V15.5566C2.81249 17.8522 2.81248 19.6517 2.96716 21.0794C3.12501 22.5363 3.45291 23.7168 4.18519 24.7247C4.62851 25.3349 5.16511 25.8715 5.77529 26.3148C6.7832 27.0471 7.96367 27.375 9.4206 27.5328C10.8482 27.6875 12.6477 27.6875 14.9433 27.6875H15.0566C17.3522 27.6875 19.1518 27.6875 20.5794 27.5328C22.0363 27.375 23.2168 27.0471 24.2247 26.3148C24.8349 25.8715 25.3715 25.3349 25.8148 24.7247C26.5471 23.7168 26.875 22.5363 27.0328 21.0794C27.1875 19.6518 27.1875 17.8523 27.1875 15.5567V15.4434C27.1875 13.1478 27.1875 11.3482 27.0328 9.9206C26.875 8.46367 26.5471 7.2832 25.8148 6.27529C25.3715 5.66511 24.8349 5.12851 24.2247 4.68519C23.2168 3.95291 22.0363 3.62501 20.5794 3.46716ZM6.87739 6.2021C7.5124 5.74074 8.32517 5.47181 9.62256 5.33125C10.9375 5.18879 12.6355 5.1875 15 5.1875C17.3645 5.1875 19.0625 5.18879 20.3774 5.33125C21.6748 5.47181 22.4876 5.74074 23.1226 6.2021C23.5736 6.52977 23.9702 6.92639 24.2979 7.37739C24.7593 8.0124 25.0282 8.82517 25.1688 10.1226C25.3112 11.4375 25.3125 13.1355 25.3125 15.5C25.3125 17.8645 25.3112 19.5625 25.1688 20.8774C25.0282 22.1748 24.7593 22.9876 24.2979 23.6226C23.9702 24.0736 23.5736 24.4702 23.1226 24.7979C22.4876 25.2593 21.6748 25.5282 20.3774 25.6688C19.0625 25.8112 17.3645 25.8125 15 25.8125C12.6355 25.8125 10.9375 25.8112 9.62256 25.6688C8.32517 25.5282 7.5124 25.2593 6.87739 24.7979C6.42639 24.4702 6.02977 24.0736 5.7021 23.6226C5.24074 22.9876 4.97181 22.1748 4.83125 20.8774C4.68879 19.5625 4.6875 17.8645 4.6875 15.5C4.6875 13.1355 4.68879 11.4375 4.83125 10.1226C4.97181 8.82517 5.24074 8.0124 5.7021 7.37739C6.02977 6.92639 6.42639 6.52977 6.87739 6.2021Z" fill="#A93FEA"/>
</svg>
