<svg width="18" height="18" viewBox="0 0 18 18" fill="#000" xmlns="http://www.w3.org/2000/svg">
<path fill-rule="evenodd" clip-rule="evenodd" d="M11.0227 1.72266L11.1127 1.77466C11.8909 2.22387 12.5397 2.59846 13.0148 2.9651C13.5163 3.3521 13.9143 3.79629 14.0811 4.41848C14.2478 5.04066 14.1252 5.62436 13.8844 6.21025C13.6562 6.76532 13.2816 7.41415 12.8323 8.19224L8.95681 14.905C8.65987 15.4202 8.42508 15.8277 8.06772 16.1347C7.71037 16.4418 7.27222 16.6126 6.71809 16.8285L6.56835 16.887C5.54013 17.2887 4.69257 17.6199 3.99851 17.782C3.27263 17.9516 2.57176 17.9727 1.91849 17.5956C1.26522 17.2184 0.933064 16.6009 0.716992 15.8875C0.510393 15.2053 0.373413 14.3057 0.207228 13.2144L0.18297 13.0555C0.0929405 12.4676 0.0217532 12.0028 0.108988 11.5398C0.119892 11.4819 0.133113 11.4249 0.148482 11.3684C0.256063 10.9733 0.468907 10.6054 0.72947 10.1549L4.60509 3.44225C5.0543 2.66412 5.42889 2.01527 5.79553 1.54016C6.18253 1.03867 6.62672 0.640646 7.24891 0.473932C7.87109 0.307219 8.45479 0.429823 9.04068 0.670624C9.59576 0.898762 10.2446 1.27339 11.0227 1.72266ZM5.50313 4.8868L11.1323 8.1368L7.70885 14.0664C7.3359 14.7123 7.22926 14.8775 7.09017 14.997C6.95108 15.1165 6.77174 15.1971 6.07696 15.4685C4.98049 15.8969 4.23373 16.1867 3.65725 16.3214C3.10038 16.4515 2.84769 16.4 2.66849 16.2965C2.48929 16.1931 2.31836 16 2.1526 15.4527C1.981 14.8861 1.85857 14.0945 1.68132 12.9307C1.56901 12.1933 1.5491 11.9977 1.58305 11.8175C1.61701 11.6373 1.70673 11.4623 2.07969 10.8164L5.50313 4.8868ZM12.497 5.64003C12.3645 5.96246 12.1618 6.34159 11.8807 6.83685L6.2547 3.58867C6.54308 3.09763 6.77007 2.73255 6.98305 2.45656C7.26751 2.08795 7.45912 1.97052 7.63713 1.92282C7.81515 1.87512 8.0398 1.88101 8.47046 2.05801C8.92125 2.24329 9.48285 2.56569 10.3177 3.0477C11.1526 3.5297 11.7126 3.85486 12.0984 4.15262C12.467 4.43708 12.5845 4.62869 12.6322 4.8067C12.6799 4.98472 12.674 5.20937 12.497 5.64003Z" fill="#333333"/>
<path d="M9.65967 17.2509C9.65967 16.8367 9.99545 16.5009 10.4097 16.5009H16.4097C16.8239 16.5009 17.1597 16.8367 17.1597 17.2509C17.1597 17.6652 16.8239 18.0009 16.4097 18.0009H10.4097C9.99545 18.0009 9.65967 17.6652 9.65967 17.2509Z" fill="#333333"/>
</svg>
