<svg width="14" height="14" viewBox="0 0 14 14" fill="#000" xmlns="http://www.w3.org/2000/svg">
<path fill-rule="evenodd" clip-rule="evenodd" d="M12.3333 3.66671C11.2288 3.66671 10.3333 2.77128 10.3333 1.66671C10.3333 1.30678 10.4284 0.969064 10.5948 0.677296C10.3992 0.636771 10.1932 0.606094 9.97568 0.582526C9.21426 0.500031 8.25452 0.500035 7.03017 0.500041H6.96983C5.74548 0.500035 4.78574 0.500031 4.02432 0.582526C3.24729 0.666712 2.61771 0.84159 2.08016 1.23214C1.75473 1.46858 1.46854 1.75477 1.2321 2.0802C0.84155 2.61775 0.666671 3.24733 0.582486 4.02436C0.499991 4.78578 0.499995 5.74551 0.5 6.96986V7.03021C0.499995 8.25456 0.499991 9.2143 0.582486 9.97572C0.666671 10.7527 0.84155 11.3823 1.2321 11.9199C1.46854 12.2453 1.75473 12.5315 2.08016 12.7679C2.61771 13.1585 3.24729 13.3334 4.02432 13.4176C4.78573 13.5 5.74549 13.5 6.96982 13.5H7.03023C8.25456 13.5 9.21427 13.5 9.97568 13.4176C10.7527 13.3334 11.3823 13.1585 11.9198 12.7679C12.2453 12.5315 12.5315 12.2453 12.7679 11.9199C13.1585 11.3823 13.3333 10.7527 13.4175 9.97572C13.5 9.21431 13.5 8.25455 13.5 7.03022V6.96981C13.5 5.74548 13.5 4.78577 13.4175 4.02436C13.3939 3.80683 13.3633 3.60086 13.3227 3.40523C13.031 3.57163 12.6933 3.66671 12.3333 3.66671ZM10.5535 4.64637C10.8015 4.76799 10.9038 5.06755 10.7822 5.31548L9.80868 7.30018C9.12696 8.68993 7.12333 8.62205 6.53723 7.18935C6.27779 6.55517 5.39088 6.52513 5.08912 7.1403L4.11557 9.125C3.99396 9.37292 3.69439 9.47531 3.44647 9.3537C3.19855 9.23209 3.09615 8.93252 3.21777 8.6846L4.19132 6.6999C4.87303 5.31015 6.87667 5.37802 7.46277 6.81072C7.72221 7.4449 8.60912 7.47495 8.91088 6.85978L9.88443 4.87508C10.006 4.62716 10.3056 4.52476 10.5535 4.64637Z" fill="#000"/>
<path d="M11 1.66671C11 2.40309 11.597 3.00004 12.3333 3.00004C13.0697 3.00004 13.6667 2.40309 13.6667 1.66671C13.6667 0.930328 13.0697 0.333374 12.3333 0.333374C11.597 0.333374 11 0.930328 11 1.66671Z" fill="#000"/>
</svg>
