<svg width="12" height="12" viewBox="0 0 12 12" fill="#000" xmlns="http://www.w3.org/2000/svg">
<path fill-rule="evenodd" clip-rule="evenodd" d="M0 6C0 3.50018 0 2.25027 0.63661 1.37405C0.842209 1.09107 1.09107 0.842209 1.37405 0.63661C2.25027 0 3.50018 0 6 0C8.49982 0 9.74973 0 10.626 0.63661C10.9089 0.842209 11.1578 1.09107 11.3634 1.37405C12 2.25027 12 3.50018 12 6C12 6.5593 12 7.05602 11.9929 7.5L11.9461 7.5C11.3781 7.49995 11.0321 7.49993 10.7337 7.54719C9.09341 7.80699 7.80699 9.09341 7.54719 10.7337C7.49993 11.0321 7.49995 11.3781 7.5 11.9461L7.5 11.9929C7.05602 12 6.5593 12 6 12C3.50018 12 2.25027 12 1.37405 11.3634C1.09107 11.1578 0.842209 10.9089 0.63661 10.626C0 9.74973 0 8.49982 0 6ZM3.33333 2.83333C3.05719 2.83333 2.83333 3.05719 2.83333 3.33333C2.83333 3.60948 3.05719 3.83333 3.33333 3.83333H5.33333C5.60948 3.83333 5.83333 3.60948 5.83333 3.33333C5.83333 3.05719 5.60948 2.83333 5.33333 2.83333H3.33333ZM3.33333 5.5C3.05719 5.5 2.83333 5.72386 2.83333 6C2.83333 6.27614 3.05719 6.5 3.33333 6.5H8.66667C8.94281 6.5 9.16667 6.27614 9.16667 6C9.16667 5.72386 8.94281 5.5 8.66667 5.5H3.33333ZM3.33333 8.16667C3.05719 8.16667 2.83333 8.39052 2.83333 8.66667C2.83333 8.94281 3.05719 9.16667 3.33333 9.16667H5.33333C5.60948 9.16667 5.83333 8.94281 5.83333 8.66667C5.83333 8.39052 5.60948 8.16667 5.33333 8.16667H3.33333Z" fill="#000"/>
<path d="M10.8901 8.53488C11.0957 8.50232 11.3496 8.50009 11.9564 8.5C11.8935 9.45975 11.7396 10.1081 11.3634 10.626C11.1578 10.9089 10.9089 11.1578 10.626 11.3634C10.1081 11.7396 9.45975 11.8935 8.5 11.9564C8.50009 11.3496 8.50232 11.0957 8.53488 10.8901C8.7269 9.67774 9.67774 8.7269 10.8901 8.53488Z" fill="#000"/>
</svg>
